<svg width="206" height="45" viewBox="0 0 206 45" fill="none" xmlns="http://www.w3.org/2000/svg">
<path d="M22.5684 16.7657V3.36142C22.5684 2.08482 23.2979 0.853818 24.4833 0.306705C25.4863 -0.149222 26.5805 -0.103629 27.538 0.489076L39.2097 7.51035C41.535 8.92373 42.9939 11.4769 42.9939 14.1669V16.6745V25.1091V31.948C42.9939 33.9997 41.8997 35.9602 40.1216 37.0088L27.4924 44.5316C26.9909 44.8508 26.3982 44.9876 25.8055 44.9876C25.304 44.9876 24.848 44.8964 24.3921 44.6684C23.2523 44.1213 22.5228 42.9359 22.5228 41.6137V29.1213C22.5228 27.3888 23.4346 25.793 24.8936 24.9268L28.9058 22.5104V22.4648L24.1641 19.5924C23.1611 18.9997 22.5684 17.9055 22.5684 16.7657ZM25.7599 26.2945C24.7568 26.8873 24.1641 27.9815 24.1641 29.1213V41.6593C24.1641 42.252 24.4377 42.8447 24.9848 43.1183C25.5319 43.4374 26.1702 43.4374 26.7173 43.1183L39.3009 35.5499C40.5775 34.7748 41.3982 33.3614 41.3982 31.8569V27.8447V25.018V16.9936C41.3982 16.9936 41.3982 16.948 41.3526 16.9936L32.0973 22.5104L30.5471 23.4222L25.7599 26.2945ZM24.1641 16.7657C24.1641 17.3584 24.4833 17.9055 24.9848 18.179L30.5471 21.5529C30.5471 21.5529 40.076 16.4009 40.7599 15.3067C41.1702 14.6228 41.307 13.7566 41.2158 12.8447C41.0334 10.9298 39.848 9.6988 38.3435 8.83254L26.6717 1.81126C26.3982 1.62889 26.1246 1.5833 25.8055 1.5833C25.5775 1.5833 25.304 1.62889 25.076 1.76567C24.4833 2.03923 24.1185 2.67753 24.1185 3.31582L24.1641 16.7657Z" fill="url(#paint0_linear_4_165)"/>
<path d="M20.3799 16.7657V3.36142C20.3799 2.08482 19.6505 0.853818 18.465 0.306705C17.462 -0.149222 16.3678 -0.103629 15.4103 0.489076L3.78419 7.46476C1.45897 8.87813 0 11.4313 0 14.1213V16.6289V25.0635V31.9025C0 33.9541 1.09423 35.9146 2.87234 36.9632L15.4559 44.5316C15.9574 44.8508 16.5502 44.9876 17.1429 44.9876C17.6444 44.9876 18.1003 44.8964 18.5562 44.6684C19.6961 44.1213 20.4255 42.9359 20.4255 41.6137V29.1213C20.4255 27.3888 19.5137 25.793 18.0547 24.9268L14.0426 22.5104V22.4648L18.7842 19.5924C19.7872 18.9997 20.3799 17.9055 20.3799 16.7657ZM17.1885 26.2945C18.1915 26.8873 18.7842 27.9815 18.7842 29.1213V41.6593C18.7842 42.252 18.5106 42.8447 17.9635 43.1183C17.4164 43.4374 16.7781 43.4374 16.231 43.1183L3.69301 35.5955C2.41641 34.8204 1.59574 33.407 1.59574 31.9025V27.8903V25.0635V16.9936C1.59574 16.9936 1.59574 16.948 1.64134 16.9936L10.8511 22.5104L12.4012 23.4222L17.1885 26.2945ZM18.7842 16.7657C18.7842 17.3584 18.465 17.9055 17.9635 18.179L12.4012 21.5073C12.4012 21.5073 2.87234 16.3553 2.18845 15.2611C1.77812 14.5772 1.64134 13.711 1.73252 12.7991C1.91489 10.8842 3.1003 9.65321 4.60486 8.78695L16.2766 1.81126C16.5502 1.62889 16.8237 1.5833 17.1429 1.5833C17.3708 1.5833 17.6444 1.62889 17.8723 1.76567C18.465 2.03923 18.8298 2.67753 18.8298 3.31582L18.7842 16.7657Z" fill="url(#paint1_linear_4_165)"/>
<path d="M28.5866 32.176C28.3587 32.176 28.1307 32.0392 28.0395 31.8569C27.8571 31.5377 27.9483 31.1274 28.2675 30.945L35.3799 26.7961C35.6991 26.6137 36.1094 26.7049 36.2918 27.024C36.4742 27.3432 36.383 27.7535 36.0638 27.9359L28.9514 32.0848C28.8146 32.176 28.6778 32.176 28.5866 32.176Z" fill="url(#paint2_linear_4_165)"/>
<path d="M28.5866 28.6654C28.3587 28.6654 28.1307 28.5286 28.0395 28.3462C27.8571 28.0271 27.9483 27.6168 28.2675 27.4344L35.3799 23.2855C35.6991 23.1031 36.1094 23.1943 36.2918 23.5134C36.4742 23.8326 36.383 24.2429 36.0638 24.4253L28.9514 28.5742C28.8146 28.6654 28.6778 28.6654 28.5866 28.6654Z" fill="url(#paint3_linear_4_165)"/>
<path d="M28.5866 39.2429C28.3587 39.2429 28.1307 39.1061 28.0395 38.9237C27.8571 38.6046 27.9483 38.1943 28.2675 38.0119L35.3799 33.863C35.6991 33.6806 36.1094 33.7718 36.2918 34.0909C36.4742 34.4101 36.383 34.8204 36.0638 35.0028L28.9514 39.1517C28.8146 39.1973 28.6778 39.2429 28.5866 39.2429Z" fill="url(#paint4_linear_4_165)"/>
<path d="M28.5866 35.7323C28.3587 35.7323 28.1307 35.5955 28.0395 35.4131C27.8571 35.094 27.9483 34.6837 28.2675 34.5013L35.3799 30.3523C35.6991 30.17 36.1094 30.2612 36.2918 30.5803C36.4742 30.8995 36.383 31.3098 36.0638 31.4922L28.9514 35.6411C28.8146 35.6867 28.6778 35.7323 28.5866 35.7323Z" fill="url(#paint5_linear_4_165)"/>
<path d="M6.61095 14.3037C6.38298 14.3037 6.15502 14.1669 6.06383 13.9845C5.88146 13.6654 5.97265 13.2551 6.2918 13.0727L13.4043 8.92376C13.7234 8.74139 14.1337 8.83257 14.3161 9.15172C14.4985 9.47087 14.4073 9.88121 14.0882 10.0636L6.97569 14.2125C6.83891 14.2581 6.74773 14.3037 6.61095 14.3037Z" fill="url(#paint6_linear_4_165)"/>
<path d="M6.61095 10.7931C6.38298 10.7931 6.15502 10.6563 6.06383 10.4739C5.88146 10.1548 5.97265 9.74445 6.2918 9.56207L13.4043 5.41314C13.7234 5.23077 14.1337 5.32195 14.3161 5.6411C14.4985 5.96025 14.4073 6.37059 14.0882 6.55296L6.97569 10.7019C6.83891 10.7475 6.74773 10.7931 6.61095 10.7931Z" fill="url(#paint7_linear_4_165)"/>
<path d="M14.3161 16.2186C14.1337 15.8995 13.7234 15.8083 13.4043 15.9907L7.93314 19.1821C8.38906 19.3189 8.84499 19.5925 9.30092 19.9116L14.0882 17.1305C14.4073 16.9481 14.4985 16.5378 14.3161 16.2186Z" fill="url(#paint8_linear_4_165)"/>
<path d="M6.61095 17.8143C6.38298 17.8143 6.15502 17.6775 6.06383 17.4952C5.88146 17.176 5.97265 16.7657 6.2918 16.5833L13.4043 12.4344C13.7234 12.252 14.1337 12.3432 14.3161 12.6623C14.4985 12.9815 14.4073 13.3918 14.0882 13.5742L6.97569 17.7231C6.83891 17.8143 6.74773 17.8143 6.61095 17.8143Z" fill="url(#paint9_linear_4_165)"/>
<path d="M63.0547 31.6289C61.003 31.6289 59.2705 31.2185 57.8116 30.4434C56.3526 29.6684 55.2584 28.5741 54.4833 27.1152C53.7082 25.7018 53.3435 24.0149 53.3435 22.1C53.3435 20.6866 53.5714 19.3644 54.0274 18.2246C54.4833 17.0392 55.1216 16.0817 55.9423 15.2155C56.7629 14.3948 57.8116 13.7565 58.997 13.3006C60.1824 12.8447 61.5502 12.6167 63.0547 12.6167C63.8754 12.6167 64.6961 12.7079 65.5623 12.8903C66.4286 13.0726 67.2037 13.3462 67.842 13.7109C68.3435 13.9845 68.6626 14.3036 68.845 14.714C69.0274 15.1243 69.1185 15.5346 69.0274 15.945C68.9818 16.3553 68.7994 16.72 68.5714 17.0848C68.3435 17.4039 68.0243 17.6319 67.614 17.7687C67.2492 17.8599 66.7933 17.8143 66.383 17.5863C65.8815 17.3583 65.3344 17.176 64.8328 17.0392C64.3313 16.9024 63.7842 16.8568 63.2371 16.8568C62.1429 16.8568 61.2766 17.0392 60.5471 17.4495C59.8176 17.8599 59.2705 18.4526 58.9058 19.2276C58.541 20.0027 58.3587 20.9602 58.3587 22.1C58.3587 23.2398 58.541 24.1972 58.9058 25.0179C59.2705 25.793 59.8176 26.3857 60.5471 26.796C61.2766 27.2064 62.1885 27.3887 63.2371 27.3887C63.693 27.3887 64.1945 27.3431 64.6961 27.2064C65.1976 27.1152 65.7447 26.9328 66.2462 26.6593C66.7477 26.4313 67.2492 26.3857 67.6596 26.4769C68.0699 26.5681 68.3891 26.796 68.6626 27.1152C68.9362 27.4343 69.073 27.7991 69.1641 28.2094C69.2553 28.6197 69.1641 29.0301 68.9818 29.4404C68.7994 29.8507 68.4802 30.1699 68.0243 30.3979C67.4316 30.7626 66.6565 31.0361 65.7903 31.2641C64.8328 31.5377 63.9666 31.6289 63.0547 31.6289Z" fill="#221D53"/>
<path d="M77.0061 31.6288C75.5927 31.6288 74.3161 31.3552 73.2675 30.8081C72.2188 30.261 71.3982 29.4859 70.8055 28.4829C70.2128 27.4799 69.9392 26.2945 69.9392 24.9267C69.9392 23.878 70.1216 22.9662 70.4407 22.1455C70.7599 21.3249 71.2614 20.5954 71.8541 20.0483C72.4924 19.4556 73.2219 19.0452 74.0882 18.7261C74.9544 18.4069 75.9119 18.2701 77.0061 18.2701C78.4195 18.2701 79.6505 18.5437 80.7447 19.0908C81.7933 19.6379 82.614 20.413 83.2067 21.416C83.7994 22.4191 84.073 23.6045 84.073 25.0179C84.073 26.0209 83.8906 26.9783 83.5714 27.799C83.2523 28.6197 82.7508 29.3492 82.1581 29.9419C81.5198 30.5346 80.7903 30.9449 79.924 31.2641C79.0122 31.492 78.0547 31.6288 77.0061 31.6288ZM77.0061 28.2549C77.462 28.2549 77.8724 28.1182 78.2371 27.8902C78.6018 27.6622 78.8754 27.2975 79.1034 26.8416C79.2857 26.3856 79.4225 25.7473 79.4225 24.9723C79.4225 23.7869 79.1945 22.9662 78.7386 22.4647C78.2827 21.9632 77.7356 21.6896 77.0061 21.6896C76.5502 21.6896 76.1398 21.7808 75.7751 22.0087C75.4103 22.2367 75.1368 22.6014 74.9088 23.0574C74.6809 23.5133 74.5897 24.1516 74.5897 24.9267C74.5897 26.0665 74.8176 26.8872 75.2736 27.4343C75.6839 27.9814 76.2766 28.2549 77.0061 28.2549Z" fill="#221D53"/>
<path d="M88.4955 31.5833C87.766 31.5833 87.2189 31.4009 86.8085 30.9906C86.3982 30.5802 86.2158 29.9875 86.2158 29.258V20.641C86.2158 19.9115 86.3982 19.3188 86.8085 18.9085C87.2189 18.4982 87.766 18.3158 88.4955 18.3158C89.2249 18.3158 89.7721 18.4982 90.1824 18.9085C90.5471 19.3188 90.7751 19.8659 90.7751 20.641V21.872L90.5015 20.8234C90.9119 20.0027 91.5046 19.3644 92.2796 18.9541C93.0547 18.4982 93.921 18.3158 94.924 18.3158C95.9271 18.3158 96.7933 18.4982 97.4316 18.9085C98.0699 19.3188 98.5714 19.9115 98.9362 20.7322C99.2553 21.5529 99.4377 22.6015 99.4377 23.8325V29.3036C99.4377 30.0787 99.2553 30.6714 98.845 31.0362C98.4347 31.4465 97.8876 31.6289 97.1125 31.6289C96.383 31.6289 95.7903 31.4465 95.38 31.0362C94.9696 30.6258 94.7872 30.0331 94.7872 29.3036V23.9693C94.7872 23.1942 94.6505 22.6471 94.3769 22.2824C94.1034 21.9632 93.693 21.7808 93.1915 21.7808C92.5076 21.7808 91.9605 22.0088 91.5046 22.4647C91.0486 22.9207 90.8663 23.5134 90.8663 24.2428V29.258C90.8207 30.8082 90.0456 31.5833 88.4955 31.5833Z" fill="#221D53"/>
<path d="M107.097 31.6289C106.322 31.6289 105.547 31.5833 104.772 31.4465C103.997 31.3553 103.267 31.1273 102.629 30.8538C102.173 30.6714 101.9 30.4435 101.717 30.1699C101.535 29.8963 101.444 29.5772 101.444 29.2125C101.444 28.8933 101.535 28.5742 101.717 28.3006C101.9 28.027 102.128 27.8447 102.447 27.7079C102.766 27.6167 103.085 27.6167 103.495 27.7535C104.225 28.027 104.863 28.2094 105.456 28.3006C106.049 28.3918 106.596 28.483 107.143 28.483C107.781 28.483 108.237 28.3918 108.511 28.2094C108.784 28.027 108.921 27.7991 108.921 27.4799C108.921 27.2064 108.83 27.024 108.647 26.8872C108.465 26.7504 108.191 26.6593 107.872 26.6137L105 26.1577C103.906 25.9754 103.085 25.565 102.492 24.9723C101.9 24.3796 101.626 23.6045 101.626 22.6015C101.626 21.6897 101.9 20.9146 102.401 20.2763C102.903 19.638 103.632 19.1365 104.498 18.7717C105.41 18.407 106.413 18.2246 107.599 18.2246C108.374 18.2246 109.103 18.2702 109.742 18.407C110.38 18.4982 111.018 18.7261 111.611 18.9997C111.976 19.1365 112.249 19.3644 112.432 19.6836C112.568 19.9571 112.66 20.2763 112.614 20.5954C112.568 20.9146 112.477 21.2337 112.295 21.4617C112.112 21.7352 111.884 21.9176 111.565 22.0088C111.246 22.1 110.881 22.1 110.471 21.9632C109.878 21.7352 109.377 21.5529 108.967 21.4617C108.511 21.3705 108.1 21.3249 107.736 21.3249C107.006 21.3249 106.505 21.4161 106.231 21.5985C105.957 21.7808 105.775 22.0544 105.775 22.328C105.775 22.5559 105.866 22.7383 106.003 22.8751C106.14 23.0118 106.413 23.103 106.733 23.1942L109.605 23.6957C110.699 23.8781 111.565 24.2428 112.158 24.8356C112.751 25.4283 113.07 26.2033 113.07 27.2064C113.07 28.6197 112.523 29.714 111.474 30.489C110.289 31.2641 108.875 31.6289 107.097 31.6289Z" fill="#221D53"/>
<path d="M121.413 31.6288C120 31.6288 118.769 31.3552 117.675 30.8081C116.581 30.261 115.805 29.4859 115.213 28.4829C114.62 27.4799 114.347 26.2945 114.347 24.9267C114.347 23.878 114.529 22.9662 114.848 22.1455C115.167 21.3249 115.669 20.5954 116.261 20.0483C116.9 19.4556 117.629 19.0452 118.495 18.7261C119.362 18.4069 120.319 18.2701 121.413 18.2701C122.827 18.2701 124.058 18.5437 125.152 19.0908C126.246 19.6379 127.021 20.413 127.614 21.416C128.207 22.4191 128.48 23.6045 128.48 25.0179C128.48 26.0209 128.298 26.9783 127.979 27.799C127.66 28.6197 127.158 29.3492 126.565 29.9419C125.927 30.5346 125.198 30.9449 124.331 31.2641C123.419 31.492 122.462 31.6288 121.413 31.6288ZM121.413 28.2549C121.869 28.2549 122.28 28.1182 122.644 27.8902C123.009 27.6622 123.283 27.2975 123.511 26.8416C123.693 26.3856 123.83 25.7473 123.83 24.9723C123.83 23.7869 123.602 22.9662 123.146 22.4647C122.69 21.9632 122.143 21.6896 121.413 21.6896C120.957 21.6896 120.547 21.7808 120.182 22.0087C119.818 22.2367 119.544 22.6014 119.316 23.0574C119.088 23.5133 118.997 24.1516 118.997 24.9267C118.997 26.0665 119.225 26.8872 119.681 27.4343C120.091 27.9814 120.684 28.2549 121.413 28.2549Z" fill="#221D53"/>
<path d="M135.456 31.6289C133.769 31.6289 132.538 31.1729 131.763 30.3067C130.988 29.3948 130.578 28.0726 130.578 26.2489V15.1243C130.578 14.3492 130.76 13.7565 131.17 13.3918C131.581 12.9814 132.128 12.7991 132.857 12.7991C133.587 12.7991 134.179 12.9814 134.59 13.3918C135 13.8021 135.182 14.3948 135.182 15.1243V26.1121C135.182 26.7504 135.319 27.2064 135.547 27.5255C135.821 27.7991 136.14 27.9814 136.505 27.9814C136.641 27.9814 136.733 27.9814 136.869 27.9358C137.006 27.8903 137.143 27.8903 137.28 27.8903C137.553 27.8903 137.781 27.9814 137.964 28.2094C138.1 28.4374 138.192 28.8933 138.192 29.5772C138.192 30.1699 138.055 30.6258 137.827 30.945C137.599 31.2641 137.188 31.4465 136.687 31.5377C136.55 31.5377 136.368 31.5833 136.094 31.6289C135.957 31.6289 135.684 31.6289 135.456 31.6289Z" fill="#221D53"/>
<path d="M146.535 31.6288C144.985 31.6288 143.617 31.3552 142.477 30.8081C141.337 30.261 140.471 29.4859 139.878 28.4829C139.286 27.4799 138.967 26.2945 138.967 24.9267C138.967 23.6045 139.24 22.4647 139.833 21.4616C140.426 20.4586 141.201 19.6835 142.249 19.1364C143.252 18.5893 144.438 18.2701 145.714 18.2701C146.672 18.2701 147.538 18.4069 148.313 18.7261C149.088 19.0452 149.772 19.4556 150.319 20.0483C150.866 20.641 151.277 21.3249 151.596 22.1455C151.869 22.9662 152.006 23.878 152.006 24.8811C152.006 25.2458 151.915 25.4738 151.733 25.6562C151.55 25.8385 151.231 25.8841 150.821 25.8841H142.842V23.6957H148.632L148.222 24.0148C148.222 23.3765 148.131 22.8294 147.948 22.4647C147.766 22.0543 147.538 21.7808 147.173 21.5528C146.854 21.3249 146.398 21.2337 145.897 21.2337C145.35 21.2337 144.894 21.3704 144.483 21.5984C144.073 21.872 143.799 22.2367 143.571 22.6926C143.343 23.1942 143.252 23.7869 143.252 24.5163V24.7443C143.252 25.9753 143.526 26.8416 144.073 27.3887C144.62 27.9358 145.486 28.1638 146.626 28.1638C146.991 28.1638 147.447 28.1182 147.948 28.027C148.45 27.9358 148.906 27.799 149.362 27.6166C149.818 27.4343 150.182 27.4343 150.547 27.5255C150.866 27.6166 151.14 27.8446 151.322 28.1182C151.505 28.3917 151.596 28.7109 151.641 29.03C151.641 29.3492 151.596 29.7139 151.413 30.0331C151.231 30.3522 150.957 30.5802 150.547 30.7625C149.954 31.0361 149.271 31.2641 148.587 31.4008C147.903 31.5832 147.219 31.6288 146.535 31.6288Z" fill="#221D53"/>
<path d="M162.948 31.5833C161.125 31.5833 159.574 31.2185 158.252 30.4435C156.93 29.6684 155.927 28.5741 155.243 27.1608C154.559 25.7474 154.195 24.0605 154.195 22.1456C154.195 20.6866 154.377 19.41 154.787 18.2702C155.198 17.1304 155.745 16.1273 156.52 15.3067C157.249 14.486 158.161 13.8477 159.255 13.4374C160.35 12.9814 161.581 12.7991 162.948 12.7991C163.997 12.7991 165 12.9359 165.957 13.255C166.915 13.5286 167.736 13.9845 168.465 14.486C168.739 14.6684 168.921 14.8963 169.012 15.1243C169.103 15.3523 169.103 15.5802 169.058 15.8082C169.012 16.0362 168.875 16.2185 168.739 16.3553C168.602 16.4921 168.374 16.5833 168.146 16.5833C167.918 16.5833 167.644 16.4921 167.371 16.3097C166.778 15.8538 166.094 15.489 165.365 15.2611C164.635 15.0331 163.86 14.9419 163.04 14.9419C161.717 14.9419 160.578 15.2155 159.62 15.8082C158.708 16.3553 157.979 17.176 157.523 18.2702C157.067 19.3188 156.793 20.641 156.793 22.1912C156.793 23.7413 157.021 25.0179 157.523 26.1121C157.979 27.2064 158.708 28.027 159.62 28.5741C160.532 29.1213 161.672 29.4404 163.04 29.4404C163.86 29.4404 164.635 29.3492 165.365 29.1213C166.094 28.8933 166.778 28.5286 167.416 28.0726C167.69 27.8903 167.964 27.7991 168.191 27.7991C168.419 27.7991 168.602 27.8903 168.784 28.027C168.921 28.1638 169.058 28.3462 169.103 28.5286C169.149 28.7565 169.149 28.9845 169.103 29.2124C169.012 29.4404 168.875 29.6228 168.647 29.8052C167.918 30.3979 167.097 30.8538 166.094 31.1729C165.046 31.4465 163.997 31.5833 162.948 31.5833Z" fill="#221D53"/>
<path d="M175.714 31.5832C174.848 31.5832 174.073 31.4008 173.343 31.0817C172.66 30.717 172.112 30.261 171.702 29.6683C171.292 29.0756 171.109 28.4373 171.109 27.7078C171.109 26.7504 171.337 26.0209 171.793 25.4738C172.249 24.9267 173.07 24.5619 174.164 24.334C175.258 24.106 176.763 23.9692 178.632 23.9692H179.863V25.4738H178.678C177.356 25.4738 176.307 25.5194 175.532 25.6562C174.757 25.7929 174.21 25.9753 173.891 26.2945C173.571 26.6136 173.435 27.0239 173.435 27.5711C173.435 28.2549 173.663 28.8021 174.164 29.258C174.62 29.7139 175.304 29.8963 176.125 29.8963C176.763 29.8963 177.356 29.7139 177.857 29.3948C178.359 29.0756 178.769 28.6197 179.043 28.0726C179.316 27.5255 179.499 26.8872 179.499 26.2033V23.1942C179.499 22.1911 179.271 21.416 178.86 20.9601C178.45 20.5042 177.72 20.2762 176.763 20.2762C176.17 20.2762 175.578 20.3674 174.985 20.5042C174.392 20.641 173.754 20.9145 173.07 21.2337C172.796 21.3704 172.568 21.416 172.386 21.3704C172.204 21.3249 172.021 21.2337 171.93 21.0513C171.839 20.8689 171.748 20.6866 171.748 20.5042C171.748 20.3218 171.793 20.0939 171.885 19.9115C171.976 19.7291 172.158 19.5923 172.386 19.5011C173.161 19.1364 173.891 18.8628 174.666 18.6805C175.441 18.4981 176.125 18.4525 176.809 18.4525C177.948 18.4525 178.86 18.6349 179.59 18.9996C180.319 19.3644 180.866 19.9115 181.231 20.641C181.596 21.3704 181.778 22.3279 181.778 23.4677V30.3522C181.778 30.7625 181.687 31.0361 181.505 31.2641C181.322 31.492 181.049 31.5832 180.684 31.5832C180.319 31.5832 180.046 31.492 179.863 31.2641C179.681 31.0361 179.544 30.7625 179.544 30.3522V28.4829H179.772C179.635 29.1212 179.362 29.6683 178.997 30.1698C178.632 30.6258 178.131 30.9905 177.584 31.2641C177.082 31.492 176.444 31.5832 175.714 31.5832Z" fill="#221D53"/>
<path d="M189.939 31.5832C189.164 31.5832 188.389 31.492 187.568 31.3097C186.793 31.1273 186.018 30.8081 185.334 30.3522C185.152 30.2154 185.015 30.0787 184.924 29.8963C184.833 29.7139 184.833 29.5315 184.833 29.3492C184.878 29.1668 184.924 28.9844 185.061 28.8477C185.198 28.7109 185.334 28.6197 185.517 28.6197C185.699 28.5741 185.881 28.6197 186.109 28.7565C186.793 29.1212 187.432 29.3948 188.07 29.5771C188.708 29.7139 189.347 29.8051 189.939 29.8051C190.897 29.8051 191.626 29.6227 192.082 29.3036C192.584 28.9388 192.812 28.4829 192.812 27.9358C192.812 27.4343 192.629 27.0695 192.31 26.796C191.991 26.5224 191.489 26.3401 190.805 26.2033L188.389 25.7018C187.295 25.4738 186.52 25.0635 185.973 24.4708C185.426 23.9236 185.152 23.1942 185.152 22.2823C185.152 21.5072 185.38 20.8233 185.79 20.2306C186.201 19.6379 186.793 19.182 187.568 18.9084C188.343 18.5893 189.21 18.4525 190.213 18.4525C190.988 18.4525 191.717 18.5437 192.401 18.7717C193.085 18.954 193.723 19.2732 194.271 19.6835C194.498 19.8203 194.635 19.9571 194.681 20.1394C194.726 20.3218 194.772 20.5042 194.726 20.6866C194.681 20.8689 194.59 21.0057 194.498 21.1425C194.362 21.2793 194.225 21.3249 194.043 21.3704C193.86 21.416 193.632 21.3704 193.404 21.2337C192.903 20.8689 192.401 20.641 191.854 20.5042C191.307 20.3674 190.805 20.2762 190.258 20.2762C189.301 20.2762 188.617 20.4586 188.116 20.8233C187.66 21.1881 187.386 21.644 187.386 22.2367C187.386 22.6926 187.523 23.0574 187.796 23.3765C188.07 23.6501 188.526 23.878 189.164 24.0148L191.581 24.5163C192.72 24.7443 193.541 25.1546 194.134 25.6562C194.726 26.2033 195 26.8872 195 27.799C195 28.9844 194.544 29.8963 193.587 30.5802C192.766 31.2641 191.535 31.5832 189.939 31.5832Z" fill="#221D53"/>
<path d="M203.298 31.5833C202.295 31.5833 201.429 31.4009 200.745 31.0362C200.061 30.6714 199.559 30.1243 199.195 29.4404C198.875 28.7565 198.693 27.8903 198.693 26.8872V20.5043H197.006C196.687 20.5043 196.459 20.4131 196.277 20.2763C196.094 20.0939 196.003 19.9116 196.003 19.5924C196.003 19.3189 196.094 19.0909 196.277 18.9085C196.459 18.7717 196.687 18.6806 197.006 18.6806H198.693V15.8538C198.693 15.4435 198.784 15.1699 199.012 14.942C199.24 14.7596 199.514 14.6228 199.878 14.6228C200.243 14.6228 200.562 14.714 200.745 14.942C200.927 15.1243 201.064 15.4435 201.064 15.8538V18.6806H204.21C204.529 18.6806 204.802 18.7717 204.985 18.9085C205.167 19.0453 205.258 19.2733 205.258 19.5924C205.258 19.866 205.167 20.0939 204.985 20.2763C204.802 20.4587 204.574 20.5043 204.21 20.5043H201.064V26.7049C201.064 27.6623 201.246 28.3918 201.657 28.8477C202.067 29.3492 202.705 29.5772 203.617 29.5772C203.936 29.5772 204.21 29.5316 204.438 29.486C204.666 29.4404 204.848 29.3948 205.03 29.3948C205.167 29.3948 205.304 29.4404 205.441 29.5316C205.532 29.6684 205.623 29.8964 205.623 30.2155C205.623 30.4435 205.578 30.6714 205.486 30.8994C205.395 31.0818 205.258 31.2185 205.03 31.3097C204.802 31.4009 204.529 31.4465 204.21 31.4921C203.891 31.5833 203.571 31.5833 203.298 31.5833Z" fill="#221D53"/>
<defs>
<linearGradient id="paint0_linear_4_165" x1="8.80427" y1="-0.299495" x2="35.6943" y2="30.4319" gradientUnits="userSpaceOnUse">
<stop offset="0.0499122" stop-color="#45BCEC"/>
<stop offset="0.528" stop-color="#4764AF"/>
<stop offset="1" stop-color="#5C53A3"/>
</linearGradient>
<linearGradient id="paint1_linear_4_165" x1="0.475486" y1="6.98818" x2="27.3655" y2="37.7196" gradientUnits="userSpaceOnUse">
<stop offset="0.0499122" stop-color="#45BCEC"/>
<stop offset="0.528" stop-color="#4764AF"/>
<stop offset="1" stop-color="#5C53A3"/>
</linearGradient>
<linearGradient id="paint2_linear_4_165" x1="7.2704" y1="1.04265" x2="34.1604" y2="31.7741" gradientUnits="userSpaceOnUse">
<stop offset="0.0499122" stop-color="#45BCEC"/>
<stop offset="0.528" stop-color="#4764AF"/>
<stop offset="1" stop-color="#5C53A3"/>
</linearGradient>
<linearGradient id="paint3_linear_4_165" x1="9.01223" y1="-0.481421" x2="35.9022" y2="30.25" gradientUnits="userSpaceOnUse">
<stop offset="0.0499122" stop-color="#45BCEC"/>
<stop offset="0.528" stop-color="#4764AF"/>
<stop offset="1" stop-color="#5C53A3"/>
</linearGradient>
<linearGradient id="paint4_linear_4_165" x1="3.78174" y1="4.09529" x2="30.6717" y2="34.8267" gradientUnits="userSpaceOnUse">
<stop offset="0.0499122" stop-color="#45BCEC"/>
<stop offset="0.528" stop-color="#4764AF"/>
<stop offset="1" stop-color="#5C53A3"/>
</linearGradient>
<linearGradient id="paint5_linear_4_165" x1="5.52361" y1="2.57116" x2="32.4136" y2="33.3025" gradientUnits="userSpaceOnUse">
<stop offset="0.0499122" stop-color="#45BCEC"/>
<stop offset="0.528" stop-color="#4764AF"/>
<stop offset="1" stop-color="#5C53A3"/>
</linearGradient>
<linearGradient id="paint6_linear_4_165" x1="3.6994" y1="4.1673" x2="30.5894" y2="34.8987" gradientUnits="userSpaceOnUse">
<stop offset="0.0499122" stop-color="#45BCEC"/>
<stop offset="0.2481" stop-color="#45BBEB"/>
<stop offset="0.3195" stop-color="#45B6E8"/>
<stop offset="0.3704" stop-color="#45AFE3"/>
<stop offset="0.4116" stop-color="#46A4DC"/>
<stop offset="0.4468" stop-color="#4797D2"/>
<stop offset="0.478" stop-color="#4787C7"/>
<stop offset="0.5055" stop-color="#4775BA"/>
<stop offset="0.528" stop-color="#4764AF"/>
<stop offset="1" stop-color="#5C53A3"/>
</linearGradient>
<linearGradient id="paint7_linear_4_165" x1="5.44118" y1="2.64325" x2="32.3312" y2="33.3746" gradientUnits="userSpaceOnUse">
<stop offset="0.1546" stop-color="#45BCEC"/>
<stop offset="0.528" stop-color="#4764AF"/>
<stop offset="1" stop-color="#5C53A3"/>
</linearGradient>
<linearGradient id="paint8_linear_4_165" x1="1.19795" y1="6.35609" x2="28.088" y2="37.0875" gradientUnits="userSpaceOnUse">
<stop offset="0.0499122" stop-color="#45BCEC"/>
<stop offset="0.528" stop-color="#4764AF"/>
<stop offset="1" stop-color="#5C53A3"/>
</linearGradient>
<linearGradient id="paint9_linear_4_165" x1="1.95256" y1="5.69578" x2="28.8425" y2="36.4272" gradientUnits="userSpaceOnUse">
<stop offset="0.0499122" stop-color="#45BCEC"/>
<stop offset="0.528" stop-color="#4764AF"/>
<stop offset="1" stop-color="#5C53A3"/>
</linearGradient>
</defs>
</svg>
