<svg width="566" height="412" viewBox="0 0 566 412" fill="none" xmlns="http://www.w3.org/2000/svg">
<mask id="mask0_32_873" style="mask-type:alpha" maskUnits="userSpaceOnUse" x="0" y="0" width="566" height="412">
<rect width="566" height="412" fill="#C4C4C4"/>
</mask>
<g mask="url(#mask0_32_873)">
<path d="M162.174 434.951L84.5371 291.313C71.3793 266.981 72.243 237.269 86.735 213.745L172.208 74.9992C186.7 51.4749 212.848 37.339 240.498 38.1464L403.706 42.8784C431.275 43.6365 456.56 59.2128 469.638 83.4952L547.274 227.133C560.432 251.465 559.568 281.177 545.077 304.701L459.554 443.527C445.063 467.051 418.914 481.187 391.264 480.38L228.106 475.568C200.536 474.81 175.251 459.233 162.174 434.951ZM402.604 80.502L239.396 75.7699C225.137 75.2645 211.706 82.5539 204.214 94.7161L118.692 233.542C111.248 245.624 110.779 260.899 117.595 273.486L195.232 417.124C201.967 429.663 215.01 437.697 229.238 438.073L392.446 442.805C406.674 443.182 420.185 435.941 427.629 423.859L513.151 285.034C520.594 272.951 521.063 257.677 514.247 245.089L436.531 101.402C429.795 88.8635 416.832 80.8781 402.604 80.502ZM202.755 275.725L293.211 262.02C304.675 260.252 311.872 248.57 308.245 237.615L279.799 150.662C276.577 140.84 265.922 135.38 256.101 138.602C246.279 141.823 240.819 152.478 244.041 162.3L265.546 228.089L197.114 238.474C186.893 240.014 179.753 249.634 181.374 259.904C182.945 270.254 192.484 277.345 202.755 275.725ZM385.88 371.759C391.302 362.957 388.537 351.32 379.735 345.898L307.722 301.535C298.92 296.113 287.283 298.878 281.86 307.679C276.438 316.481 279.203 328.118 288.005 333.541L360.018 377.904C368.9 383.375 380.457 380.561 385.88 371.759Z" fill="url(#paint0_linear_32_873)"/>
</g>
<defs>
<linearGradient id="paint0_linear_32_873" x1="442.106" y1="54.3652" x2="189.705" y2="464.081" gradientUnits="userSpaceOnUse">
<stop stop-color="#62E8C2"/>
<stop offset="1" stop-color="#62E8C2" stop-opacity="0"/>
</linearGradient>
</defs>
</svg>
