<svg width="37" height="36" viewBox="0 0 37 36" fill="none" xmlns="http://www.w3.org/2000/svg">
<path d="M9.84895 27.8978L5.48012 19.8149C4.7397 18.4457 4.7883 16.7737 5.6038 15.4499L10.4136 7.64231C11.2291 6.31853 12.7005 5.52306 14.2565 5.56849L23.4406 5.83478C24.9921 5.87744 26.4149 6.75396 27.1508 8.1204L31.5196 16.2033C32.2601 17.5725 32.2115 19.2445 31.396 20.5683L26.5834 28.3804C25.7679 29.7042 24.2965 30.4996 22.7405 30.4542L13.5591 30.1834C12.0077 30.1407 10.5849 29.2642 9.84895 27.8978ZM23.3786 7.95196L14.1945 7.68568C13.3921 7.65723 12.6363 8.06743 12.2147 8.75183L7.40209 16.5639C6.98324 17.2438 6.95685 18.1034 7.34039 18.8117L11.7092 26.8946C12.0883 27.6002 12.8222 28.0523 13.6228 28.0735L22.807 28.3398C23.6077 28.3609 24.368 27.9535 24.7868 27.2736L29.5994 19.4615C30.0182 18.7816 30.0446 17.9221 29.6611 17.2137L25.2878 9.12806C24.9087 8.42249 24.1793 7.97313 23.3786 7.95196ZM12.1326 18.9377L17.2228 18.1665C17.8679 18.067 18.2729 17.4096 18.0688 16.7932L16.468 11.9C16.2867 11.3474 15.6872 11.0401 15.1345 11.2214C14.5818 11.4027 14.2745 12.0023 14.4558 12.5549L15.666 16.2571L11.8152 16.8415C11.24 16.9282 10.8382 17.4695 10.9294 18.0474C11.0178 18.6299 11.5546 19.0289 12.1326 18.9377ZM22.4375 24.3418C22.7426 23.8465 22.587 23.1916 22.0917 22.8865L18.0393 20.3901C17.5441 20.085 16.8892 20.2406 16.5841 20.7359C16.2789 21.2311 16.4345 21.886 16.9298 22.1911L20.9822 24.6876C21.482 24.9955 22.1324 24.8371 22.4375 24.3418Z" fill="url(#paint0_linear_306_3073)"/>
<defs>
<linearGradient id="paint0_linear_306_3073" x1="25.6015" y1="6.48117" x2="11.3982" y2="29.537" gradientUnits="userSpaceOnUse">
<stop stop-color="#B2B6F2"/>
<stop offset="1" stop-color="#CCCCFF"/>
</linearGradient>
</defs>
</svg>
